<svg width="130" height="20" viewBox="0 0 130 20" fill="none" xmlns="http://www.w3.org/2000/svg">
<path d="M14.7038 19.677H10.8835L5.5523 12.2129H3.1201V19.677H0.0122839L0 0.394737H6.15421C9.83937 0.394737 12.8612 3.15789 12.8612 6.59091C12.8612 9.07895 11.2152 11.244 8.94264 11.9617L14.7038 19.677ZM3.10781 9.70096H6.22791C8.09506 9.71292 9.65511 8.24163 9.65511 6.51914C9.65511 4.72488 8.07049 3.39713 6.22791 3.39713H3.10781V9.70096Z" fill="black"/>
<path d="M28.5968 3.37321H19.9121V8.3134H27.4053V11.3278H19.9121V16.6627H28.5968V19.677H16.8043V0.394737H28.5968V3.37321Z" fill="black"/>
<path d="M45.6591 19.677L43.104 14.1651H36.1465L33.584 19.677H30.2183L39.5294 0H39.7137L49.0249 19.677H45.6591ZM36.1465 14.1651H43.104V14.1507L38.103 3.01435L37.0287 5.28469L38.6622 8.34689L36.1465 14.1651Z" fill="black"/>
<path d="M56.8619 0.394737C63.1513 0.382775 67.0698 4.09091 67.0698 10.0598C67.0698 15.9809 63.1513 19.677 56.8619 19.677H51.2237V0.394737H56.8619ZM56.8865 16.6627C61.2104 16.6627 63.9252 14.1148 63.9252 10.0478C63.9252 5.95694 61.1981 3.39713 56.8497 3.39713H54.3192V16.6627H56.8865Z" fill="black"/>
<path d="M75.6317 20C72.3764 20 69.9074 18.5167 68.7773 16.2919L71.2341 14.5813C72.1185 16.0885 73.7645 16.9498 75.6685 16.9498C77.8919 16.9498 79.5748 15.9091 79.5748 14.4378C79.5748 12.6555 76.9706 11.5789 74.6612 10.61C72.3396 9.60526 69.76 8.43301 69.76 5.4067C69.76 2.2488 72.573 0.0478469 76.1353 0.0478469C78.9606 0.0478469 81.0734 1.3756 81.8842 3.49282L79.5748 5.04785C78.9606 3.74402 77.5971 3.01435 76.1599 3.01435C74.3419 3.01435 72.8924 4.11483 72.8924 5.47847C72.8924 6.98565 74.7227 7.52392 77.1303 8.52871C80.2627 9.86842 82.6949 11.3397 82.6949 14.378C82.6949 17.799 79.6485 20 75.6317 20Z" fill="black"/>
<path d="M97.7795 0.394737V3.39713H92.4728V19.677H89.3527V3.39713H84.0461V0.394737H97.7795Z" fill="black"/>
<path d="M112.053 3.37321H103.369V8.3134H110.862V11.3278H103.369V16.6627H112.053V19.677H100.261V0.394737H112.053V3.37321Z" fill="black"/>
<path d="M130 19.677H126.18L120.849 12.2129H118.416V19.677H115.309L115.296 0.394737H121.45C125.136 0.394737 128.157 3.15789 128.157 6.59091C128.157 9.07895 126.511 11.244 124.239 11.9617L130 19.677ZM118.404 9.70096H121.524C123.391 9.71292 124.951 8.24163 124.951 6.51914C124.951 4.72488 123.367 3.39713 121.524 3.39713H118.404V9.70096Z" fill="black"/>
</svg>
